<?xml version="1.0" encoding="UTF-8" standalone="no"?>
<!-- Created with Inkscape (http://www.inkscape.org/) -->

<svg
   xmlns:dc="http://purl.org/dc/elements/1.1/"
   xmlns:cc="http://creativecommons.org/ns#"
   xmlns:rdf="http://www.w3.org/1999/02/22-rdf-syntax-ns#"
   xmlns:svg="http://www.w3.org/2000/svg"
   xmlns="http://www.w3.org/2000/svg"
   xmlns:xlink="http://www.w3.org/1999/xlink"
   xmlns:sodipodi="http://sodipodi.sourceforge.net/DTD/sodipodi-0.dtd"
   xmlns:inkscape="http://www.inkscape.org/namespaces/inkscape"
   width="46.00222mm"
   height="46.00222mm"
   viewBox="0 0 46.00222 46.00222"
   version="1.1"
   id="svg141"
   inkscape:version="0.92.2 (5c3e80d, 2017-08-06)"
   sodipodi:docname="drawing.svg">
  <defs
     id="defs135">
    <linearGradient
       inkscape:collect="always"
       xlink:href="#linearGradient4223"
       id="linearGradient4229"
       x1="54.53862"
       y1="145.23412"
       x2="61.919418"
       y2="152.94922"
       gradientUnits="userSpaceOnUse"
       gradientTransform="matrix(0.2822222,0,0,0.2822222,96.064129,84.312521)" />
    <linearGradient
       inkscape:collect="always"
       id="linearGradient4223">
      <stop
         style="stop-color:#000000;stop-opacity:1;"
         offset="0"
         id="stop4225" />
      <stop
         style="stop-color:#000000;stop-opacity:0;"
         offset="1"
         id="stop4227" />
    </linearGradient>
    <filter
       inkscape:collect="always"
       style="color-interpolation-filters:sRGB"
       id="filter4780"
       x="-0.014566117"
       width="1.0291322"
       y="-0.0063743219"
       height="1.0127486">
      <feGaussianBlur
         inkscape:collect="always"
         stdDeviation="0.18545769"
         id="feGaussianBlur4782" />
    </filter>
    <filter
       inkscape:collect="always"
       style="color-interpolation-filters:sRGB"
       id="filter4766"
       x="-0.03300003"
       width="1.0660001"
       y="-0.024000024"
       height="1.0480001">
      <feGaussianBlur
         inkscape:collect="always"
         stdDeviation="0.083337588"
         id="feGaussianBlur4768" />
    </filter>
    <filter
       inkscape:collect="always"
       style="color-interpolation-filters:sRGB"
       id="filter4784"
       x="-0.055078126"
       width="1.1101563"
       y="-0.057786833"
       height="1.1155736">
      <feGaussianBlur
         inkscape:collect="always"
         stdDeviation="0.18545769"
         id="feGaussianBlur4786" />
    </filter>
    <filter
       inkscape:collect="always"
       style="color-interpolation-filters:sRGB"
       id="filter4762"
       x="-0.023999996"
       width="1.048"
       y="-0.028285706"
       height="1.0565714">
      <feGaussianBlur
         inkscape:collect="always"
         stdDeviation="0.083337588"
         id="feGaussianBlur4764" />
    </filter>
    <filter
       inkscape:collect="always"
       style="color-interpolation-filters:sRGB"
       id="filter4788"
       x="-0.044062521"
       width="1.088125"
       y="-0.043518495"
       height="1.087037">
      <feGaussianBlur
         inkscape:collect="always"
         stdDeviation="0.18545769"
         id="feGaussianBlur4790" />
    </filter>
    <filter
       inkscape:collect="always"
       style="color-interpolation-filters:sRGB"
       id="filter4758"
       x="-0.017599994"
       width="1.0352"
       y="-0.018418605"
       height="1.0368372">
      <feGaussianBlur
         inkscape:collect="always"
         stdDeviation="0.083337588"
         id="feGaussianBlur4760" />
    </filter>
    <filter
       inkscape:collect="always"
       style="color-interpolation-filters:sRGB"
       id="filter4748"
       x="-0.0082035922"
       width="1.0164073"
       y="-0.022336962"
       height="1.0446739">
      <feGaussianBlur
         inkscape:collect="always"
         stdDeviation="0.1529018"
         id="feGaussianBlur4750" />
    </filter>
    <filter
       inkscape:collect="always"
       style="color-interpolation-filters:sRGB"
       id="filter4721"
       x="-0.023664383"
       width="1.0473288"
       y="-0.0034355321"
       height="1.0068711">
      <feGaussianBlur
         inkscape:collect="always"
         stdDeviation="0.19280134"
         id="feGaussianBlur4723" />
    </filter>
    <filter
       inkscape:collect="always"
       style="color-interpolation-filters:sRGB"
       id="filter4201"
       x="-0.04210262"
       width="1.0842052"
       y="-0.016783638"
       height="1.0335673">
      <feGaussianBlur
         inkscape:collect="always"
         stdDeviation="0.63563084"
         id="feGaussianBlur4203" />
    </filter>
    <linearGradient
       inkscape:collect="always"
       xlink:href="#linearGradient4219"
       id="linearGradient4225"
       x1="186.63283"
       y1="155.7207"
       x2="218.16264"
       y2="244.64795"
       gradientUnits="userSpaceOnUse" />
    <linearGradient
       inkscape:collect="always"
       id="linearGradient4219">
      <stop
         style="stop-color:#ffffff;stop-opacity:1;"
         offset="0"
         id="stop4221" />
      <stop
         style="stop-color:#ffffff;stop-opacity:0;"
         offset="1"
         id="stop4223" />
    </linearGradient>
    <filter
       inkscape:collect="always"
       style="color-interpolation-filters:sRGB"
       id="filter4235-7"
       x="-0.16867419"
       width="1.3373483"
       y="-0.045768291"
       height="1.0915366">
      <feGaussianBlur
         inkscape:collect="always"
         stdDeviation="1.579626"
         id="feGaussianBlur4237-8" />
    </filter>
    <filter
       inkscape:collect="always"
       style="color-interpolation-filters:sRGB"
       id="filter4235"
       x="-0.16867419"
       width="1.3373483"
       y="-0.045768291"
       height="1.0915366">
      <feGaussianBlur
         inkscape:collect="always"
         stdDeviation="1.579626"
         id="feGaussianBlur4237" />
    </filter>
    <filter
       inkscape:collect="always"
       style="color-interpolation-filters:sRGB"
       id="filter4264"
       x="-0.002011111"
       width="1.0040222"
       y="-0.00085511815"
       height="1.0017102">
      <feGaussianBlur
         inkscape:collect="always"
         stdDeviation="0.032321428"
         id="feGaussianBlur4266" />
    </filter>
    <filter
       inkscape:collect="always"
       style="color-interpolation-filters:sRGB"
       id="filter4296"
       x="-0.028100315"
       width="1.0562006"
       y="-0.083775699"
       height="1.1675514">
      <feGaussianBlur
         inkscape:collect="always"
         stdDeviation="0.94322992"
         id="feGaussianBlur4298" />
    </filter>
    <inkscape:path-effect
       effect="envelope"
       id="path-effect4146-8"
       is_visible="true"
       yy="true"
       xx="true"
       bendpath1="#path4176"
       bendpath2="m 122.59636,87.79447 v 42.79509"
       bendpath3="m 100.80368,130.58956 h 21.79268"
       bendpath4="m 100.80368,87.79447 v 42.79509" />
  </defs>
  <sodipodi:namedview
     id="base"
     pagecolor="#ffffff"
     bordercolor="#666666"
     borderopacity="1.0"
     inkscape:pageopacity="0.0"
     inkscape:pageshadow="2"
     inkscape:zoom="0.98994949"
     inkscape:cx="409.24194"
     inkscape:cy="-70.436228"
     inkscape:document-units="mm"
     inkscape:current-layer="layer1"
     showgrid="false"
     inkscape:window-width="1920"
     inkscape:window-height="1172"
     inkscape:window-x="1920"
     inkscape:window-y="0"
     inkscape:window-maximized="1" />
  <metadata
     id="metadata138">
    <rdf:RDF>
      <cc:Work
         rdf:about="">
        <dc:format>image/svg+xml</dc:format>
        <dc:type
           rdf:resource="http://purl.org/dc/dcmitype/StillImage" />
        <dc:title></dc:title>
      </cc:Work>
    </rdf:RDF>
  </metadata>
  <g
     inkscape:label="Layer 1"
     inkscape:groupmode="layer"
     id="layer1"
     transform="translate(-99.463181,-86.522697)">
    <rect
       style="opacity:0.8;fill:none;fill-opacity:1;stroke:none;stroke-width:0.51502782;stroke-linecap:round;stroke-linejoin:round;stroke-miterlimit:4;stroke-dasharray:none;stroke-opacity:1"
       id="rect4792"
       width="46.00222"
       height="46.00222"
       x="99.463181"
       y="86.522697"
       rx="2.2245641"
       ry="2.8781738"
       inkscape:export-xdpi="8.8299999"
       inkscape:export-ydpi="8.8299999" />
    <path
       style="opacity:1;fill:#898989;fill-opacity:1;stroke:#000000;stroke-width:0.67141563;stroke-miterlimit:3;stroke-dasharray:none;stroke-opacity:1"
       d="m 119.74795,90.406838 h 3.01008 l 0.84301,2.06627 3.11088,0.151193 0.13746,-2.217463 10.41841,0.251985 c 2.00672,0 4.76024,2.368652 4.76024,2.368652 l 1.19723,2.869531 0.65372,3.927862 -4.27858,-0.125993 0.0439,-2.565513 c 0,0 -2.97318,-0.07665 -3.00871,0.171665 l -0.38944,2.721433 -1.44778,0.0504 -0.0367,5.39246 -6.89064,-0.15119 0.11453,-4.93889 -1.49818,-0.0504 0.12943,-1.877285 -3.14637,0.0378 -0.0218,1.448909 -3.70074,0.138586 c -0.5588,0.0209 -1.00937,-2.156408 -1.00937,-4.835001 0,-2.678594 0.45018,-4.835009 1.00937,-4.835009 z"
       id="rect4149"
       inkscape:connector-curvature="0"
       sodipodi:nodetypes="sccccccccccscccccccccsss"
       inkscape:export-xdpi="8.8299999"
       inkscape:export-ydpi="8.8299999" />
    <path
       style="opacity:1;fill:#f5eb2b;fill-opacity:1;stroke:#000000;stroke-width:0.52821469;stroke-miterlimit:3;stroke-dasharray:none;stroke-opacity:1"
       d="m 106.156,91.700226 4.56312,-3.905756 5.46231,5.348366 -3.60912,3.735663 3.54723,3.433281 -3.05476,2.67733 c -0.37544,0.32906 3.16899,3.12733 3.16899,3.12733 l -2.43165,3.13123 8.75645,8.4229 0.0378,6.659 -5.45546,4.74393 c -2.97178,2.58418 -10.7749,1.15826 -11.13168,0.80907 l -4.94331,-4.83809 c -0.35678,-0.34919 -0.24597,-6.8063 -0.24597,-6.8063 l 5.44286,-5.31817 c 0,0 0.16789,-20.802933 -0.10681,-21.219784 z"
       id="rect4151"
       inkscape:connector-curvature="0"
       sodipodi:nodetypes="cccccsccccsssccc"
       inkscape:path-effect="#path-effect4146-8"
       inkscape:original-d="m 106.156,91.700226 4.56312,-3.905756 5.46231,5.348366 -3.60912,3.735663 3.54723,3.433281 -3.05476,2.67733 c -0.37544,0.32906 3.16899,3.12733 3.16899,3.12733 l -2.43165,3.13123 8.75645,8.4229 0.0378,6.659 -5.45546,4.74393 c -2.97178,2.58418 -10.7749,1.15826 -11.13168,0.80907 l -4.94331,-4.83809 c -0.35678,-0.34919 -0.24597,-6.8063 -0.24597,-6.8063 l 5.44286,-5.31817 c 0,0 0.16789,-20.802933 -0.10681,-21.219784 z"
       inkscape:export-xdpi="8.8299999"
       inkscape:export-ydpi="8.8299999" />
    <ellipse
       style="opacity:1;fill:#ffffff;fill-opacity:1;stroke:#000000;stroke-width:0.56444442;stroke-miterlimit:3;stroke-dasharray:none;stroke-opacity:1"
       id="path4239"
       cx="111.75401"
       cy="125.36325"
       rx="2.8726189"
       ry="2.6206348"
       inkscape:export-xdpi="8.8299999"
       inkscape:export-ydpi="8.8299999" />
    <path
       style="fill:none;fill-rule:evenodd;stroke:#000000;stroke-width:0.47977775;stroke-linecap:round;stroke-linejoin:round;stroke-miterlimit:4;stroke-dasharray:none;stroke-opacity:1"
       d="m 105.45441,120.12199 c 1.4461,-1.03491 3.02382,-4.13254 3.02382,-4.13254 l 3.20426,4.17097 2.80772,-4.06406 c 0,0 2.99178,3.89051 3.46262,4.5296"
       id="path4261"
       inkscape:connector-curvature="0"
       sodipodi:nodetypes="ccccc"
       inkscape:export-xdpi="8.8299999"
       inkscape:export-ydpi="8.8299999" />
    <path
       style="fill:none;fill-rule:evenodd;stroke:#000000;stroke-width:0.28222221px;stroke-linecap:round;stroke-linejoin:round;stroke-opacity:1"
       d="M 108.47823,92.605324 V 112.86485"
       id="path4267"
       inkscape:connector-curvature="0"
       inkscape:export-xdpi="8.8299999"
       inkscape:export-ydpi="8.8299999" />
    <path
       transform="matrix(0.2822222,0,0,0.2822222,96.215319,84.16133)"
       style="fill:none;fill-rule:evenodd;stroke:#ffffff;stroke-width:6;stroke-linecap:round;stroke-linejoin:round;stroke-miterlimit:4;stroke-dasharray:none;stroke-opacity:1;filter:url(#filter4296)"
       d="m 85.58071,52.484525 -2.0203,-12.87945 2.14657,-13.8896 5.42957,0.50508 3.40926,7.57614 17.67768,1.38897 -0.12627,-8.20749 35.1028,0.3788 11.36422,6.31345 4.29314,10.2278 1.26269,6.81853 v 0"
       id="path4276"
       inkscape:connector-curvature="0"
       sodipodi:nodetypes="cccccccccccc"
       inkscape:export-xdpi="8.8299999"
       inkscape:export-ydpi="8.8299999" />
    <path
       style="opacity:1;fill:none;fill-opacity:1;stroke:#000000;stroke-width:0.67141563;stroke-miterlimit:3;stroke-dasharray:none;stroke-opacity:1"
       d="m 119.74795,90.406838 h 3.01008 l 0.84301,2.06627 3.11088,0.151193 0.13746,-2.217463 10.41841,0.251985 c 2.00672,0 4.76024,2.368652 4.76024,2.368652 l 1.19723,2.869531 0.65372,3.927862 -4.27858,-0.125993 0.0439,-2.565513 c 0,0 -2.97318,-0.07665 -3.00871,0.171665 l -0.38944,2.721433 -1.44778,0.0504 -0.0367,5.39246 -6.89064,-0.15119 0.11453,-4.93889 -1.49818,-0.0504 0.12943,-1.877285 -3.14637,0.0378 -0.0218,1.448909 -3.70074,0.138586 c -0.5588,0.0209 -1.00937,-2.156408 -1.00937,-4.835001 0,-2.678594 0.45018,-4.835009 1.00937,-4.835009 z"
       id="rect4149-9"
       inkscape:connector-curvature="0"
       sodipodi:nodetypes="sccccccccccscccccccccsss"
       inkscape:export-xdpi="8.8299999"
       inkscape:export-ydpi="8.8299999" />
    <path
       transform="matrix(0.2822222,0,0,0.2822222,96.215319,84.16133)"
       inkscape:connector-curvature="0"
       style="opacity:1;fill:#ff0023;fill-opacity:1;stroke:#a30018;stroke-width:2;stroke-miterlimit:3;stroke-dasharray:none;stroke-opacity:1;filter:url(#filter4264)"
       d="m 108.54589,75.511685 h 33.57141 c 1.38501,0 2.50001,11.57883 2.50001,25.961505 v 38.79128 c 0,14.38267 -1.115,25.9615 -2.50001,25.9615 h -33.57141 c -1.385,0 -2.50001,-11.57883 -2.50001,-25.9615 v -38.79128 c 0,-14.382675 1.11501,-25.961505 2.50001,-25.961505 z"
       id="rect4147"
       inkscape:export-xdpi="8.8299999"
       inkscape:export-ydpi="8.8299999" />
    <path
       style="fill:#ffdc00;fill-opacity:1;fill-rule:evenodd;stroke:none;stroke-width:1px;stroke-linecap:butt;stroke-linejoin:miter;stroke-opacity:1;filter:url(#filter4235)"
       d="m 193.69675,241.96732 -7.57614,3.03046 -0.25254,-90.66119 31.04118,0.25666 -5.29033,8.0771 c 0,0 -12.85046,-4.1169 -16.65948,0 -3.8891,4.20346 -1.26269,79.29697 -1.26269,79.29697 z"
       id="path4213"
       inkscape:connector-curvature="0"
       sodipodi:nodetypes="cccccsc"
       transform="matrix(0.28291446,0,0,0.27769264,74.475119,63.020373)"
       inkscape:export-xdpi="8.8299999"
       inkscape:export-ydpi="8.8299999" />
    <path
       style="fill:url(#linearGradient4225);fill-opacity:1;fill-rule:evenodd;stroke:none;stroke-width:1px;stroke-linecap:butt;stroke-linejoin:miter;stroke-opacity:1;filter:url(#filter4235-7)"
       d="m 193.69675,241.96732 -7.57614,3.03046 -0.25254,-90.66119 31.04118,0.25666 -5.29033,8.0771 c 0,0 -12.06071,-3.17122 -16.65948,0 -4.77977,3.29604 -1.26269,79.29697 -1.26269,79.29697 z"
       id="path4213-7"
       inkscape:connector-curvature="0"
       sodipodi:nodetypes="cccccsc"
       transform="matrix(0.28291446,0,0,0.27769264,74.475119,63.020373)"
       inkscape:export-xdpi="8.8299999"
       inkscape:export-ydpi="8.8299999" />
    <path
       transform="matrix(0.2822222,0,0,0.2822222,96.215319,84.16133)"
       style="fill:#c90620;fill-opacity:1;fill-rule:evenodd;stroke:none;stroke-width:1px;stroke-linecap:butt;stroke-linejoin:miter;stroke-opacity:1;filter:url(#filter4201)"
       d="m 108.27266,166.16967 c 0,0 6.20504,-7.0577 8.85188,-8.31381 3.4624,-1.64315 12.52439,0.66836 15.79097,-2.85715 3.26659,-3.52551 0.51223,-68.519375 1.78572,-70.599885 1.38675,-2.26553 7.32143,-8.76487 7.32143,-8.76487 2.40108,-2.87446 2.14286,81.250005 2.14286,81.250005 l -2.32143,9.64286 z"
       id="path4195"
       inkscape:connector-curvature="0"
       sodipodi:nodetypes="cszssccc"
       inkscape:export-xdpi="8.8299999"
       inkscape:export-ydpi="8.8299999" />
    <path
       transform="matrix(0.2822222,0,0,0.2822222,96.215319,84.16133)"
       style="fill:none;fill-rule:evenodd;stroke:#000000;stroke-width:2;stroke-linecap:round;stroke-linejoin:round;stroke-miterlimit:4;stroke-dasharray:none;stroke-opacity:1;filter:url(#filter4721)"
       d="m 51.55443,14.646691 c 0,0 -13.14425,9.715414 -14.89313,13.083654 -0.23364,2.10555 0.64377,72.759315 0.40283,74.175285 -1.23949,1.69552 -11.12181,10.71103 -19.301039,19.67985 -1.3607,10.35778 -0.66768,16.61757 0.63135,22.39987 4.26635,5.46663 19.427839,18.85964 19.427839,18.85964"
       id="path4715"
       inkscape:connector-curvature="0"
       sodipodi:nodetypes="cccccc"
       inkscape:export-xdpi="8.8299999"
       inkscape:export-ydpi="8.8299999" />
    <path
       transform="matrix(0.2822222,0,0,0.2822222,96.215319,84.16133)"
       style="fill:none;fill-rule:evenodd;stroke:#000000;stroke-width:1.70000005;stroke-linecap:round;stroke-linejoin:round;stroke-miterlimit:4;stroke-dasharray:none;stroke-opacity:0.46500017;filter:url(#filter4748)"
       d="m 33.30887,128.2462 c 5.12395,-3.66702 10.71878,-14.73849 10.71878,-14.73849 l 11.35368,14.77903 9.94862,-14.40022 c 0,0 10.6008,13.78528 12.26913,16.04976"
       id="path4261-4"
       inkscape:connector-curvature="0"
       sodipodi:nodetypes="ccccc"
       inkscape:export-xdpi="8.8299999"
       inkscape:export-ydpi="8.8299999" />
    <path
       transform="matrix(0.2822222,0,0,0.2822222,96.215319,84.16133)"
       style="fill:none;fill-rule:evenodd;stroke:#000000;stroke-width:2;stroke-linecap:round;stroke-linejoin:round;stroke-miterlimit:4;stroke-dasharray:none;stroke-opacity:1;filter:url(#filter4758)"
       d="M 69.16573,31.145045 56.90997,44.803775"
       id="path4752"
       inkscape:connector-curvature="0"
       sodipodi:nodetypes="cc"
       inkscape:export-xdpi="8.8299999"
       inkscape:export-ydpi="8.8299999" />
    <path
       transform="matrix(0.2822222,0,0,0.2822222,96.215319,84.16133)"
       style="fill:none;fill-rule:evenodd;stroke:#feffce;stroke-width:2;stroke-linecap:round;stroke-linejoin:round;stroke-miterlimit:4;stroke-dasharray:none;stroke-opacity:1;filter:url(#filter4788)"
       d="m 56.79137,46.743765 10.36938,10.13851"
       id="path4770"
       inkscape:connector-curvature="0"
       sodipodi:nodetypes="cc"
       inkscape:export-xdpi="8.8299999"
       inkscape:export-ydpi="8.8299999" />
    <path
       transform="matrix(0.2822222,0,0,0.2822222,96.215319,84.16133)"
       style="fill:none;fill-rule:evenodd;stroke:#000000;stroke-width:2;stroke-linecap:round;stroke-linejoin:round;stroke-miterlimit:4;stroke-dasharray:none;stroke-opacity:1;filter:url(#filter4762)"
       d="M 69.30732,56.666725 58.93027,66.856215"
       id="path4754"
       inkscape:connector-curvature="0"
       sodipodi:nodetypes="cc"
       inkscape:export-xdpi="8.8299999"
       inkscape:export-ydpi="8.8299999" />
    <path
       transform="matrix(0.2822222,0,0,0.2822222,96.215319,84.16133)"
       style="fill:none;fill-rule:evenodd;stroke:#feffce;stroke-width:2;stroke-linecap:round;stroke-linejoin:round;stroke-miterlimit:4;stroke-dasharray:none;stroke-opacity:1;filter:url(#filter4784)"
       d="m 58.6854,69.598465 8.70622,7.7917"
       id="path4772"
       inkscape:connector-curvature="0"
       sodipodi:nodetypes="cc"
       inkscape:export-xdpi="8.8299999"
       inkscape:export-ydpi="8.8299999" />
    <path
       transform="matrix(0.2822222,0,0,0.2822222,96.215319,84.16133)"
       style="fill:none;fill-rule:evenodd;stroke:#000000;stroke-width:2;stroke-linecap:round;stroke-linejoin:round;stroke-miterlimit:4;stroke-dasharray:none;stroke-opacity:1;filter:url(#filter4766)"
       d="m 69.292,77.106995 -7.94729,11.52746"
       id="path4756"
       inkscape:connector-curvature="0"
       sodipodi:nodetypes="cc"
       inkscape:export-xdpi="8.8299999"
       inkscape:export-ydpi="8.8299999" />
    <path
       transform="matrix(0.2822222,0,0,0.2822222,96.215319,84.16133)"
       style="fill:none;fill-rule:evenodd;stroke:#feffaf;stroke-width:2;stroke-linecap:round;stroke-linejoin:round;stroke-miterlimit:4;stroke-dasharray:none;stroke-opacity:1;filter:url(#filter4780)"
       d="m 61.07817,90.260645 30.55711,29.383705 0.17857,21.65963 -20.29605,17.62274"
       id="path4776"
       inkscape:connector-curvature="0"
       sodipodi:nodetypes="cccc"
       inkscape:export-xdpi="8.8299999"
       inkscape:export-ydpi="8.8299999" />
    <ellipse
       style="opacity:1;fill:none;fill-opacity:1;stroke:url(#linearGradient4229);stroke-width:0.56444442;stroke-miterlimit:3;stroke-dasharray:none;stroke-opacity:1"
       id="path4239-7"
       cx="111.42821"
       cy="125.25652"
       rx="2.8726189"
       ry="2.6206348"
       inkscape:export-xdpi="8.8299999"
       inkscape:export-ydpi="8.8299999" />
  </g>
</svg>
